<svg width="24" height="23" viewBox="0 0 24 23" fill="none" xmlns="http://www.w3.org/2000/svg">
<path d="M12.0253 0C5.83658 0 0.800781 5.0344 0.800781 11.2238C0.800781 17.4132 5.83658 22.4476 12.0253 22.4476C18.214 22.4476 23.2498 17.4132 23.2498 11.2238C23.2498 5.0344 18.214 0 12.0253 0ZM12.0253 21.7C6.24888 21.7 1.54978 17.0002 1.54978 11.2238C1.54978 5.4474 6.24888 0.7476 12.0253 0.7476C17.8017 0.7476 22.5008 5.4474 22.5008 11.2238C22.5008 17.0002 17.8017 21.7 12.0253 21.7Z" fill="white"/>
<path d="M14.4742 4.92378H12.6066C10.228 4.89998 9.92423 6.37208 9.92423 7.96528V9.12378H8.87423C8.82677 9.11744 8.77849 9.12213 8.73313 9.13748C8.68778 9.15282 8.64658 9.17842 8.61272 9.21228C8.57886 9.24613 8.55327 9.28734 8.53792 9.33269C8.52257 9.37804 8.51789 9.42632 8.52423 9.47378V11.5738C8.51789 11.6212 8.52257 11.6695 8.53792 11.7149C8.55327 11.7602 8.57886 11.8014 8.61272 11.8353C8.64658 11.8691 8.68778 11.8947 8.73313 11.9101C8.77849 11.9254 8.82677 11.9301 8.87423 11.9238H9.92423V17.1738C9.91839 17.2213 9.9235 17.2696 9.93917 17.3148C9.95483 17.3601 9.98064 17.4012 10.0146 17.435C10.0486 17.4687 10.0898 17.4943 10.1352 17.5097C10.1805 17.5251 10.2288 17.5299 10.2763 17.5238H12.4148C12.6213 17.5476 12.7886 17.3803 12.7228 17.1738L12.7242 11.9238H14.4742C14.5217 11.9301 14.57 11.9254 14.6153 11.9101C14.6607 11.8947 14.7019 11.8691 14.7357 11.8353C14.7696 11.8014 14.7952 11.7602 14.8105 11.7149C14.8259 11.6695 14.8306 11.6212 14.8242 11.5738V9.47378C14.8306 9.42632 14.8259 9.37804 14.8105 9.33269C14.7952 9.28734 14.7696 9.24613 14.7357 9.21228C14.7019 9.17842 14.6607 9.15282 14.6153 9.13748C14.57 9.12213 14.5217 9.11744 14.4742 9.12378H12.7221L12.7242 8.07378C12.7921 7.62648 12.7921 7.69928 13.2072 7.72378H14.4595C14.5568 7.70208 14.6604 7.71398 14.7332 7.64328C14.806 7.57258 14.848 7.47598 14.8235 7.37378V5.27378C14.83 5.22636 14.8254 5.17809 14.8102 5.13273C14.7949 5.08737 14.7694 5.04615 14.7356 5.01227C14.7018 4.9784 14.6606 4.95279 14.6153 4.93744C14.5699 4.92209 14.5217 4.91742 14.4742 4.92378ZM14.0997 6.98458L13.2219 6.95098C12.1348 6.95098 12.0438 7.54108 12.0438 8.14518L12.041 9.47238C12.0409 9.52153 12.0505 9.57021 12.0693 9.61564C12.088 9.66108 12.1155 9.70237 12.1503 9.73715C12.185 9.77194 12.2262 9.79953 12.2716 9.81836C12.317 9.83719 12.3657 9.84688 12.4148 9.84688H14.1242V11.1993H12.4162C12.317 11.1993 12.2219 11.2386 12.1517 11.3087C12.0814 11.3788 12.0419 11.4739 12.0417 11.5731L12.041 16.8238H10.6242V11.5738C10.6242 11.3673 10.4835 11.2 10.2763 11.2H9.22423V9.84758H10.2763C10.3254 9.84766 10.3741 9.83805 10.4195 9.81931C10.4649 9.80058 10.5062 9.77308 10.5409 9.73838C10.6109 9.66768 10.6235 9.57248 10.6235 9.47308V7.96458C10.6235 6.39518 10.9406 5.64758 12.6059 5.64758H14.099V6.98458H14.0997Z" fill="white"/>
</svg>
