<svg width="19" height="22" viewBox="0 0 19 22" fill="none" xmlns="http://www.w3.org/2000/svg">
<path d="M9.99863 0.333759C11.1775 0.315796 12.3473 0.324778 13.5172 0.315796C13.5526 1.71922 14.1135 3.05823 15.089 4.06786C16.1454 5.01653 17.4894 5.58342 18.9061 5.67782V9.30414C17.6003 9.27267 16.3146 8.97587 15.1271 8.4318C14.6202 8.19027 14.1323 7.91066 13.6676 7.59539C13.6586 10.2225 13.6766 12.8496 13.6497 15.4678C13.5808 16.7389 13.1603 17.966 12.4349 19.0121C11.8373 19.8763 11.0449 20.588 10.1217 21.0896C9.19848 21.5912 8.17026 21.8687 7.12002 21.8997C5.83184 21.9585 4.5549 21.6364 3.44879 20.9735C2.53851 20.4328 1.76741 19.6865 1.19719 18.7944C0.626961 17.9024 0.273435 16.8892 0.164891 15.836C0.146928 15.3869 0.137946 14.9379 0.15591 14.4955C0.247716 13.5725 0.528129 12.6782 0.979767 11.868C1.43141 11.0578 2.04464 10.349 2.78146 9.78552C3.51829 9.22206 4.36299 8.81595 5.26321 8.59236C6.16343 8.36877 7.09999 8.33246 8.01482 8.48569C8.03278 9.81721 7.97889 11.1487 7.97889 12.4803C7.59489 12.3456 7.18807 12.2883 6.78183 12.3114C6.37558 12.3346 5.97791 12.4378 5.61169 12.6152C5.24548 12.7925 4.91793 13.0405 4.6479 13.3449C4.37786 13.6493 4.17066 14.0041 4.03821 14.3889C3.89738 14.8579 3.85458 15.3509 3.91247 15.8371C4.02931 16.5778 4.41392 17.2499 4.99335 17.7259C5.57279 18.2018 6.30674 18.4486 7.05603 18.4193C7.55922 18.4046 8.05076 18.2644 8.48602 18.0115C8.92128 17.7586 9.28647 17.4009 9.54843 16.9711C9.74908 16.6891 9.87605 16.3614 9.91779 16.0179C10.0076 14.4079 9.97168 12.8058 9.98067 11.1903C9.98965 7.56508 9.97168 3.94773 9.99863 0.331514V0.333759Z" fill="#6D6D6D"/>
</svg>
