<svg width="23" height="23" viewBox="0 0 23 23" fill="none" xmlns="http://www.w3.org/2000/svg">
<path d="M11.7987 -0.0238037C5.61002 -0.0238037 0.574219 5.0106 0.574219 11.2C0.574219 17.3894 5.61002 22.4238 11.7987 22.4238C17.9874 22.4238 23.0232 17.3894 23.0232 11.2C23.0232 5.0106 17.9874 -0.0238037 11.7987 -0.0238037ZM11.7987 21.6762C6.02232 21.6762 1.32322 16.9764 1.32322 11.2C1.32322 5.4236 6.02232 0.723796 11.7987 0.723796C17.5751 0.723796 22.2742 5.4236 22.2742 11.2C22.2742 16.9764 17.5751 21.6762 11.7987 21.6762Z" fill="white"/>
<path d="M17.9549 7.73222C18.0325 7.5885 18.0965 7.4378 18.146 7.28212C18.1689 7.20991 18.1694 7.13244 18.1473 7.05996C18.1253 6.98748 18.0818 6.92339 18.0226 6.87614C17.9633 6.8289 17.8912 6.80073 17.8156 6.79535C17.74 6.78997 17.6646 6.80764 17.5993 6.84602C17.2406 7.05911 16.8523 7.21786 16.4471 7.31712C15.9552 6.87316 15.3163 6.62704 14.6537 6.62622C14.2937 6.6265 13.9375 6.69946 13.6064 6.84074C13.2752 6.98202 12.9761 7.18871 12.7268 7.44841C12.4774 7.70811 12.2831 8.01548 12.1555 8.35209C12.0279 8.68869 11.9695 9.04761 11.9839 9.40732C10.4096 9.20914 8.97204 8.41251 7.96941 7.18272C7.93099 7.13613 7.8819 7.0995 7.8263 7.07594C7.7707 7.05238 7.71023 7.0426 7.65004 7.04741C7.58984 7.05222 7.5317 7.07148 7.48054 7.10357C7.42939 7.13566 7.38674 7.17962 7.35621 7.23172C7.12662 7.62577 7.00184 8.07207 6.99375 8.52805C6.98566 8.98403 7.09454 9.43448 7.31001 9.83642C7.25716 9.84534 7.20639 9.86384 7.16021 9.89102C7.10361 9.92711 7.05701 9.97687 7.02471 10.0357C6.99242 10.0946 6.97546 10.1606 6.97541 10.2277C6.97541 11.0222 7.32891 11.7516 7.89871 12.2472L7.87421 12.2717C7.83119 12.3204 7.80159 12.3794 7.78834 12.443C7.77508 12.5066 7.77862 12.5725 7.79861 12.6343C7.91742 13.005 8.11581 13.3452 8.37989 13.6312C8.64397 13.9171 8.96735 14.1419 9.32741 14.2898C8.58792 14.6506 7.76036 14.7912 6.94321 14.6951C6.85921 14.6866 6.77475 14.7061 6.70305 14.7507C6.63135 14.7953 6.57647 14.8624 6.54701 14.9415C6.51871 15.0212 6.51818 15.1082 6.5455 15.1882C6.57282 15.2683 6.62638 15.3367 6.69751 15.3825C7.80841 16.0955 9.10078 16.4743 10.4208 16.4738C14.7468 16.4738 17.3326 12.9598 17.3326 9.56272L17.3319 9.44792C17.7512 9.12061 18.1153 8.72832 18.4106 8.28592C18.4553 8.21904 18.4773 8.13954 18.4733 8.05919C18.4693 7.97884 18.4396 7.90191 18.3884 7.83979C18.3373 7.77767 18.2675 7.73367 18.1895 7.7143C18.1114 7.69492 18.0291 7.70121 17.9549 7.73222ZM16.7334 8.96072C16.6826 8.99725 16.6418 9.04592 16.6146 9.10229C16.5875 9.15866 16.5749 9.22093 16.578 9.28342C16.5822 9.37582 16.5843 9.46962 16.5843 9.56202C16.5843 12.5916 14.2792 15.7255 10.4215 15.7255C9.73348 15.7258 9.05031 15.6104 8.40061 15.3839C9.17872 15.2348 9.90969 14.9011 10.5321 14.4109C10.5927 14.3631 10.637 14.2978 10.6591 14.2239C10.6812 14.15 10.6798 14.071 10.6553 13.9979C10.6308 13.9247 10.5843 13.8609 10.5222 13.8152C10.46 13.7695 10.3852 13.744 10.3081 13.7424C10.0063 13.7367 9.71004 13.66 9.44327 13.5188C9.1765 13.3775 8.94666 13.1755 8.77231 12.929C8.94941 12.9171 9.12301 12.8877 9.29171 12.8422C9.37335 12.8204 9.44518 12.7715 9.49548 12.7036C9.54577 12.6356 9.57156 12.5527 9.56864 12.4682C9.56572 12.3837 9.53425 12.3027 9.47938 12.2385C9.42451 12.1742 9.34947 12.1304 9.26651 12.1142C8.92562 12.0449 8.61 11.8842 8.35342 11.6493C8.09683 11.4144 7.90892 11.1142 7.80981 10.7807C7.99601 10.8276 8.18711 10.8549 8.37821 10.8612C8.54271 10.8605 8.69531 10.7597 8.74641 10.6015C8.79751 10.4433 8.73731 10.269 8.59801 10.1766C8.26864 9.95718 8.01504 9.64141 7.87183 9.27244C7.72863 8.90348 7.70282 8.49931 7.79791 8.11512C9.01383 9.36274 10.6557 10.1057 12.3955 10.1955C12.5187 10.1962 12.6265 10.1521 12.7014 10.0618C12.7763 9.97152 12.805 9.85182 12.7784 9.73702C12.6827 9.32472 12.7255 8.89236 12.9002 8.50685C13.075 8.12134 13.3719 7.80417 13.7451 7.60443C14.1183 7.40469 14.5469 7.33351 14.9646 7.40192C15.3823 7.47032 15.7658 7.67449 16.0558 7.98282C16.0993 8.02919 16.1538 8.06374 16.2143 8.08321C16.2748 8.10268 16.3393 8.10643 16.4016 8.09412C16.5171 8.07102 16.6312 8.04442 16.7439 8.01362C16.6931 8.05165 16.6403 8.08694 16.5857 8.11932C16.5131 8.16379 16.4578 8.23165 16.429 8.31174C16.4001 8.39182 16.3994 8.47935 16.427 8.55989C16.4545 8.64043 16.5087 8.70918 16.5806 8.75482C16.6524 8.80045 16.7377 8.82024 16.8223 8.81092L16.9497 8.79482C16.8795 8.85261 16.8074 8.90794 16.7334 8.96072Z" fill="white"/>
</svg>
