<svg width="23" height="23" viewBox="0 0 23 23" fill="none" xmlns="http://www.w3.org/2000/svg">
<path d="M11.2 6.06667C10.1847 6.06667 9.19225 6.36773 8.34807 6.93179C7.5039 7.49585 6.84595 8.29756 6.45742 9.23556C6.06889 10.1736 5.96723 11.2057 6.1653 12.2015C6.36337 13.1972 6.85228 14.1119 7.57018 14.8298C8.28809 15.5477 9.20277 16.0366 10.1985 16.2347C11.1943 16.4328 12.2264 16.3311 13.1644 15.9426C14.1024 15.5541 14.9042 14.8961 15.4682 14.0519C16.0323 13.2078 16.3333 12.2153 16.3333 11.2C16.3318 9.83903 15.7905 8.53424 14.8281 7.57189C13.8658 6.60954 12.561 6.06821 11.2 6.06667ZM11.2 15.4C10.3693 15.4 9.55729 15.1537 8.86661 14.6922C8.17592 14.2307 7.63759 13.5747 7.31971 12.8073C7.00182 12.0398 6.91864 11.1953 7.0807 10.3806C7.24276 9.5659 7.64277 8.81753 8.23015 8.23015C8.81753 7.64277 9.5659 7.24276 10.3806 7.0807C11.1953 6.91864 12.0398 7.00182 12.8073 7.31971C13.5747 7.63759 14.2307 8.17592 14.6922 8.86661C15.1537 9.55729 15.4 10.3693 15.4 11.2C15.3988 12.3135 14.9559 13.3811 14.1685 14.1685C13.3811 14.9559 12.3135 15.3988 11.2 15.4ZM16.3333 0H6.06667C4.45825 0.00182184 2.91622 0.641572 1.7789 1.7789C0.641572 2.91622 0.00182184 4.45825 0 6.06667V16.3333C0.00182184 17.9418 0.641572 19.4838 1.7789 20.6211C2.91622 21.7584 4.45825 22.3982 6.06667 22.4H16.3333C17.9418 22.3982 19.4838 21.7584 20.6211 20.6211C21.7584 19.4838 22.3982 17.9418 22.4 16.3333V6.06667C22.3982 4.45825 21.7584 2.91622 20.6211 1.7789C19.4838 0.641572 17.9418 0.00182184 16.3333 0ZM21.4667 16.3333C21.4651 17.6943 20.9238 18.9991 19.9614 19.9614C18.9991 20.9238 17.6943 21.4651 16.3333 21.4667H6.06667C4.7057 21.4651 3.40091 20.9238 2.43856 19.9614C1.4762 18.9991 0.934877 17.6943 0.933333 16.3333V6.06667C0.934877 4.7057 1.4762 3.40091 2.43856 2.43856C3.40091 1.4762 4.7057 0.934877 6.06667 0.933333H16.3333C17.6943 0.934877 18.9991 1.4762 19.9614 2.43856C20.9238 3.40091 21.4651 4.7057 21.4667 6.06667V16.3333ZM18.2 5.13333C18.2 5.31793 18.1453 5.49838 18.0427 5.65187C17.9401 5.80535 17.7944 5.92498 17.6238 5.99562C17.4533 6.06626 17.2656 6.08475 17.0846 6.04873C16.9035 6.01272 16.7372 5.92383 16.6067 5.7933C16.4762 5.66277 16.3873 5.49647 16.3513 5.31542C16.3153 5.13437 16.3337 4.94671 16.4044 4.77616C16.475 4.60562 16.5946 4.45985 16.7481 4.3573C16.9016 4.25474 17.0821 4.2 17.2667 4.2C17.5141 4.20031 17.7513 4.29874 17.9263 4.47371C18.1013 4.64867 18.1997 4.88589 18.2 5.13333Z" fill="white"/>
</svg>
